<svg version="1.1" xmlns="http://www.w3.org/2000/svg" xmlns:xlink="http://www.w3.org/1999/xlink" width="437.57342" height="144.7967" viewBox="0,0,437.57342,144.7967"><defs><radialGradient cx="89.34382" cy="203.50265" r="46.60921" gradientUnits="userSpaceOnUse" id="color-1"><stop offset="0" stop-color="#6a4646"/><stop offset="1" stop-color="#6a4646" stop-opacity="0"/></radialGradient><radialGradient cx="59.79533" cy="205.26148" r="36.75972" gradientUnits="userSpaceOnUse" id="color-2"><stop offset="0" stop-color="#6a4646"/><stop offset="1" stop-color="#6a4646" stop-opacity="0"/></radialGradient><radialGradient cx="122.23409" cy="204.20618" r="36.9356" gradientUnits="userSpaceOnUse" id="color-3"><stop offset="0" stop-color="#6a4646"/><stop offset="1" stop-color="#6a4646" stop-opacity="0"/></radialGradient></defs><g transform="translate(-23.03561,-107.60165)"><g data-paper-data="{&quot;isPaintingLayer&quot;:true}" fill-rule="nonzero" stroke-linecap="butt" stroke-linejoin="miter" stroke-miterlimit="10" stroke-dasharray="" stroke-dashoffset="0" style="mix-blend-mode: normal"><g stroke="none" stroke-width="0"><path d="M43.17776,149.71081l-4.71615,-24.18459l6.28639,-1.47259l5.08335,-11.94852l31.99116,-4.50346l13.23309,10.77666l28.08271,-4.95284l1.10781,26.13588l-44.59758,5.58346l-4.70657,6.81328l-19.44069,3.7703l-4.37491,-7.01557z" fill="#cf9400"/><path d="M42.2901,180.15482l-4.71615,-24.18459l8.93484,-1.77912l4.57684,6.99966l20.06338,-3.60235l2.54427,-6.77985l76.22066,-9.75736l1.10781,26.13588l-72.26087,8.40171l-4.70656,6.81328l-19.4407,3.77031l-4.37492,-7.01558z" fill="#006fc3"/><path d="M42.7346,203.50265c0,-26.03297 20.86766,-47.13687 46.60921,-47.13687c25.74156,0 46.60921,21.10389 46.60921,47.13687c0,26.03297 -20.86766,47.13687 -46.60921,47.13687c-25.74156,0 -46.60921,-21.10389 -46.60921,-47.13687z" fill="url(#color-1)"/><path d="M23.03561,205.26148c0,-26.03297 16.45789,-47.13687 36.75972,-47.13687c20.30183,0 36.75972,21.10389 36.75972,47.13687c0,26.03297 -16.45789,47.13687 -36.75972,47.13687c-20.30183,0 -36.75972,-21.10389 -36.75972,-47.13687z" fill="url(#color-2)"/><path d="M85.29849,204.20618c0,-26.03297 16.53663,-47.13687 36.9356,-47.13687c20.39897,0 36.9356,21.10389 36.9356,47.13687c0,26.03297 -16.53663,47.13687 -36.9356,47.13687c-20.39897,0 -36.9356,-21.10389 -36.9356,-47.13687z" fill="url(#color-3)"/><path d="M85.81667,232.20263c-12.23153,-2.43357 -19.81808,-12.39225 -16.94503,-22.24334c2.87304,-9.85108 15.11772,-15.86417 27.34925,-13.43059c12.23153,2.43357 19.81808,12.39225 16.94504,22.24334c-2.87304,9.85108 -15.11772,15.86417 -27.34925,13.43059z" fill="#e8fff3"/><g fill="#e8f9ff"><path d="M30.28566,197.73567c-0.01805,-14.6306 11.6688,-26.04505 26.10329,-25.4949c14.43449,0.55015 26.15059,12.85658 26.16864,27.48718c0.01805,14.6306 -11.66879,26.04506 -26.10329,25.4949c-14.43449,-0.55015 -26.15059,-12.85658 -26.16864,-27.48718z"/><path d="M102.4879,199.91585c-0.01662,-13.47278 10.74537,-23.98393 24.03756,-23.47732c13.2922,0.50661 24.08112,11.83915 24.09774,25.31193c0.01662,13.47278 -10.74537,23.98393 -24.03756,23.47732c-13.2922,-0.50662 -24.08112,-11.83916 -24.09773,-25.31193z"/><path d="M68.9972,181.10658c-0.01662,-13.47278 13.01832,-23.8973 29.11433,-23.28382c16.09602,0.61348 29.15789,12.03265 29.17451,25.50543c0.01662,13.47278 -13.01832,23.8973 -29.11433,23.28382c-16.09602,-0.61348 -29.15789,-12.03265 -29.1745,-25.50543z"/></g><g><path d="M45.41521,200.45484l-4.71615,-25.59233l8.93484,-1.88268l4.57685,7.40709l20.06338,-3.81203l2.54427,-7.17449l48.55737,-7.34301l1.10781,27.6572l-44.59758,5.90846l-4.70657,7.20987l-19.4407,3.98976l-4.37491,-7.42394z" fill="#c700cc"/><path d="M88.44383,189.02936l-4.83148,-2.99818l-1.67442,-6.99782l4.50729,-4.76878l31.14153,-4.25161l2.84362,7.26739l-0.84503,7.49739z" data-paper-data="{&quot;index&quot;:null}" fill="#a500a8"/><path d="M108.2565,177.26067l4.10331,-0.63134l3.9313,-0.35269l-3.63818,4.78558z" fill="#850087"/></g><path d="M38.25302,150.41435l-4.71615,-24.18459l6.28639,-1.47259l5.08335,-11.94852l31.99116,-4.50346l13.23309,10.77666l28.08271,-4.95284l1.10781,26.13588l-44.59758,5.58346l-4.70657,6.81328l-19.44069,3.7703l-4.37491,-7.01557z" fill="#ffcc4a"/><g fill="#25b12a"><path d="M54.28924,149.3845l-8.5797,-20.37596l3.00241,-1.96984l8.2349,20.53776z"/><path d="M53.25379,138.51085l-4.82564,-11.47921l7.00719,0.89587l4.44805,-3.43514l4.69829,-0.69327l4.59132,9.48555l-4.39238,0.52087l-4.84537,4.90761z"/></g><g fill="#35ff3b"><path d="M54.99278,145.51506l-8.5797,-20.37596l3.00241,-1.96984l8.2349,20.53776z"/><path d="M53.95733,134.64141l-4.82564,-11.47921l7.00719,0.89587l4.44805,-3.43514l4.69829,-0.69327l4.59132,9.48555l-4.39238,0.52087l-4.84537,4.90761z"/></g><g><path d="M41.93833,174.87831l-4.71615,-24.18459l8.93484,-1.77912l4.57684,6.99966l20.06338,-3.60235l2.54427,-6.77985l76.22066,-9.75736l1.10781,26.13588l-72.26087,8.40171l-4.70656,6.81328l-19.4407,3.77031l-4.37492,-7.01558z" fill="#0092ff"/><path d="M136.20915,142.97555l3.4209,3.05483l1.27593,6.6697l-3.07663,4.2744l-21.69203,2.51058l-5.59114,-8.55492l3.97093,-5.44401z" data-paper-data="{&quot;index&quot;:null}" fill="#ffffff"/><path d="M80.94377,164.54693l-3.47776,-2.98994l-1.40116,-6.64452l2.99568,-4.33151l21.64097,-2.91818l4.39707,6.68785l-2.51383,7.27813z" data-paper-data="{&quot;index&quot;:null}" fill="#ffffff"/></g><path d="M68.70793,204.91393c0,-10.94312 9.88817,-19.81427 22.08586,-19.81427c12.19768,0 22.08586,8.87115 22.08586,19.81427c0,10.94312 -9.88817,19.81427 -22.08586,19.81427c-12.19768,0 -22.08586,-8.87115 -22.08586,-19.81427z" fill="#e8f9ff"/></g><text transform="translate(182.36044,198.91305) scale(1.63927,1.63927)" font-size="40" xml:space="preserve" fill="#ff00e6" fill-rule="nonzero" stroke="#ff00e6" stroke-width="2" stroke-linecap="butt" stroke-linejoin="miter" stroke-miterlimit="10" stroke-dasharray="" stroke-dashoffset="0" font-family="&quot;Microsoft YaHei&quot;, &quot;微软雅黑&quot;, STXihei, &quot;华文细黑&quot;" font-weight="normal" text-anchor="start" style="mix-blend-mode: normal"><tspan x="0" dy="0">Blocklive</tspan></text></g></g></svg>